<svg width="102" height="68" viewBox="0 0 102 68" fill="none" xmlns="http://www.w3.org/2000/svg">
<path d="M88.9281 66.5271L85.0864 56.3898L89.1512 45.4593H98.4458L91.952 55.2001L98.5946 66.5271H88.9281ZM76.5105 66.5271V41.3991L75.0233 40.5068V38.2017L82.9796 36.9624H84.5906V66.5271H76.5105Z" fill="black"/>
<path d="M74.1963 64.4699L73.9733 64.7425C73.8245 64.9078 73.5602 65.1226 73.1801 65.387C72.8166 65.6348 72.3704 65.8909 71.8417 66.1553C71.3294 66.4032 70.6354 66.6097 69.7597 66.775C68.9004 66.9567 67.9751 67.0476 66.9837 67.0476C63.6293 67.0476 61.0599 66.0644 59.2753 64.0981C57.5073 62.1318 56.6233 59.5293 56.6233 56.2906C56.6233 54.5391 56.8959 52.9445 57.4412 51.507C57.9865 50.0694 58.73 48.8797 59.6719 47.9378C60.6303 46.9794 61.7456 46.2441 63.018 45.7319C64.3068 45.2031 65.6948 44.9388 67.182 44.9388C70.0571 44.9388 72.2878 45.6245 73.8741 46.996C74.2211 47.343 74.3946 47.5165 74.3946 47.5165L74.0228 53.3411L70.5033 53.3659L69.0905 49.5737C68.9583 49.5406 68.7765 49.5241 68.5452 49.5241C67.0415 49.5241 66.0005 50.0446 65.4222 51.0856C64.8604 52.1101 64.5795 53.8947 64.5795 56.4393C64.5795 57.5464 64.6704 58.4965 64.8521 59.2897C65.0339 60.0663 65.2404 60.6529 65.4718 61.0495C65.7031 61.4295 66.0088 61.7269 66.3888 61.9418C66.7854 62.1566 67.1076 62.2805 67.3555 62.3135C67.6033 62.3466 67.909 62.3631 68.2725 62.3631C69.0987 62.3631 69.9414 62.264 70.8007 62.0657C71.6764 61.8674 72.3952 61.5452 72.957 61.099L74.1963 64.4699Z" fill="black"/>
<path d="M47.5544 64.3212L47.3066 64.5938C47.1413 64.7921 46.8852 65.0234 46.5382 65.2878C46.2077 65.5522 45.8194 65.8166 45.3733 66.081C44.9437 66.3453 44.4149 66.5684 43.787 66.7502C43.1591 66.9485 42.5147 67.0476 41.8537 67.0476C37.3923 67.0476 35.1616 64.8417 35.1616 60.4298C35.1616 59.5706 35.3185 58.7857 35.6325 58.0752C35.9464 57.3481 36.3513 56.7368 36.847 56.241C37.3427 55.7453 37.9376 55.3074 38.6316 54.9274C39.3256 54.5308 40.0196 54.2251 40.7136 54.0103C41.4241 53.779 42.1677 53.589 42.9443 53.4403C43.7209 53.2915 44.4149 53.1924 45.0263 53.1428C45.6377 53.0933 46.2243 53.0685 46.7861 53.0685V52.6223C46.7861 51.6144 46.5134 50.9039 45.9681 50.4908C45.4394 50.0777 44.5801 49.8711 43.3904 49.8711C42.3659 49.8711 41.3002 49.995 40.1931 50.2429C39.086 50.4742 38.2185 50.7551 37.5906 51.0856L36.0043 47.7148C37.1279 46.9877 38.5903 46.3515 40.3913 45.8063C42.1924 45.2444 44.0266 44.9635 45.8938 44.9635C47.5462 44.9635 48.9094 45.1288 49.9834 45.4593C51.0575 45.7732 51.925 46.3185 52.5859 47.0951C53.2634 47.8552 53.7426 48.8301 54.0235 50.0198C54.3044 51.193 54.4448 52.6884 54.4448 54.506V64.5938L55.1388 66.5271H48.3476L47.5544 64.3212ZM45.5963 62.6853C45.8112 62.6853 46.0094 62.644 46.1912 62.5614C46.3895 62.4623 46.5382 62.3714 46.6373 62.2887C46.7365 62.1896 46.7861 62.14 46.7861 62.14V56.1915C45.7781 56.1915 44.9767 56.4724 44.3818 57.0342C43.787 57.5795 43.4896 58.4304 43.4896 59.5871C43.4896 61.6526 44.1918 62.6853 45.5963 62.6853Z" fill="black"/>
<path d="M28.487 67.0476C26.2563 67.0476 24.6948 66.3784 23.8025 65.04C22.9268 63.7015 22.4889 61.4378 22.4889 58.2487V49.8215H20.7787V46.3763L23.7034 45.4593L26.2315 39.6842H30.5938V45.4593H34.6587V49.8215H30.5195V59.0418C30.5195 60.3637 30.7095 61.2395 31.0895 61.6691C31.4696 62.0987 32.0562 62.3135 32.8493 62.3135C33.1963 62.3135 33.5103 62.2722 33.7912 62.1896C34.0721 62.107 34.3034 61.9913 34.4852 61.8426V65.2135C34.2373 65.4613 33.9151 65.7092 33.5185 65.957C33.1219 66.1884 32.461 66.428 31.5357 66.6758C30.6269 66.9237 29.6106 67.0476 28.487 67.0476Z" fill="black"/>
<path d="M10.3696 67.0476C9.09731 67.0476 7.9076 66.932 6.80051 66.7006C5.70994 66.4858 4.79287 66.1966 4.0493 65.8331C3.30573 65.4696 2.69435 65.1226 2.21516 64.7921C1.75249 64.4616 1.36417 64.1312 1.05022 63.8007L1.66986 57.7778C2.34734 58.6866 3.25615 59.4797 4.39629 60.1572C5.53643 60.8181 6.76746 61.1486 8.08937 61.1486C9.41127 61.1486 10.3614 61.0082 10.9397 60.7273C11.5346 60.4464 11.832 59.9341 11.832 59.1906C11.832 58.3974 11.4933 57.7199 10.8158 57.1581C10.1548 56.5963 9.00644 55.9188 7.37058 55.1257C6.77572 54.8283 6.27174 54.5639 5.85865 54.3326C5.44555 54.0847 4.89201 53.6881 4.19801 53.1428C3.52053 52.581 2.96698 52.0027 2.53736 51.4078C2.10774 50.7965 1.7277 50.0198 1.39722 49.078C1.06675 48.1196 0.90151 47.0951 0.90151 46.0046C0.90151 40.1056 4.23105 37.1561 10.8901 37.1561C11.9477 37.1561 12.9391 37.2717 13.8644 37.5031C14.8063 37.7179 15.5416 37.9575 16.0704 38.2218C16.5991 38.4862 17.0783 38.8002 17.5079 39.1637C17.9541 39.5107 18.235 39.7586 18.3507 39.9073C18.4663 40.0395 18.5489 40.1469 18.5985 40.2295L17.3592 45.0131C16.7148 44.253 15.9051 43.6912 14.9302 43.3277C13.9718 42.9477 13.0548 42.7576 12.179 42.7576C10.064 42.7576 9.00643 43.4186 9.00643 44.7405C9.00643 45.0875 9.07253 45.4014 9.20472 45.6823C9.33691 45.9632 9.55172 46.2194 9.84915 46.4507C10.1466 46.682 10.4192 46.8803 10.6671 47.0456C10.9315 47.2108 11.2867 47.4173 11.7329 47.6652C12.1955 47.8965 12.5425 48.0866 12.7739 48.2353C15.1863 49.2597 16.9544 50.4742 18.078 51.8788C19.2181 53.2833 19.7882 54.9935 19.7882 57.0094C19.7882 60.2811 18.9786 62.7762 17.3592 64.4947C15.7564 66.1966 13.4266 67.0476 10.3696 67.0476Z" fill="black"/>
<path d="M95.1905 32.7667H87.1847V16.7304L85.6976 15.8133V13.0125L91.0265 11.6989H93.0341L93.7529 17.5979C94.4304 13.5495 96.6033 11.5254 100.272 11.5254C100.685 11.5254 101.114 11.5997 101.56 11.7484L100.718 20.5721C100.371 20.2582 99.6106 20.1012 98.4374 20.1012C96.752 20.1012 95.6697 20.5474 95.1905 21.4396V32.7667Z" fill="black"/>
<path d="M77.1244 30.5608L76.8766 30.8334C76.7113 31.0317 76.4552 31.263 76.1082 31.5274C75.7777 31.7918 75.3894 32.0562 74.9433 32.3206C74.5137 32.5849 73.9849 32.808 73.357 32.9898C72.7291 33.1881 72.0847 33.2872 71.4237 33.2872C66.9623 33.2872 64.7316 31.0813 64.7316 26.6694C64.7316 25.8102 64.8885 25.0253 65.2025 24.3148C65.5165 23.5877 65.9213 22.9764 66.417 22.4806C66.9127 21.9849 67.5076 21.547 68.2016 21.167C68.8956 20.7704 69.5896 20.4647 70.2836 20.2499C70.9941 20.0186 71.7377 19.8286 72.5143 19.6799C73.2909 19.5311 73.9849 19.432 74.5963 19.3824C75.2077 19.3329 75.7943 19.3081 76.3561 19.3081V18.8619C76.3561 17.854 76.0834 17.1435 75.5381 16.7304C75.0094 16.3173 74.1501 16.1107 72.9604 16.1107C71.9359 16.1107 70.8702 16.2346 69.7631 16.4825C68.656 16.7138 67.7885 16.9947 67.1606 17.3252L65.5743 13.9544C66.6979 13.2273 68.1603 12.5911 69.9614 12.0459C71.7624 11.484 73.5966 11.2031 75.4638 11.2031C77.1162 11.2031 78.4794 11.3684 79.5534 11.6989C80.6275 12.0128 81.495 12.5581 82.1559 13.3347C82.8334 14.0948 83.3126 15.0697 83.5935 16.2594C83.8744 17.4326 84.0148 18.928 84.0148 20.7456V30.8334L84.7088 32.7667H77.9176L77.1244 30.5608ZM75.1663 28.9249C75.3812 28.9249 75.5794 28.8836 75.7612 28.801C75.9595 28.7019 76.1082 28.611 76.2074 28.5284C76.3065 28.4292 76.3561 28.3796 76.3561 28.3796V22.4311C75.3481 22.4311 74.5467 22.712 73.9518 23.2738C73.357 23.8191 73.0596 24.67 73.0596 25.8267C73.0596 27.8922 73.7618 28.9249 75.1663 28.9249Z" fill="black"/>
<path d="M56.7451 32.4693L55.7785 29.2719C55.6463 29.5033 55.4893 29.7346 55.3076 29.9659C55.1423 30.1973 54.8697 30.4947 54.4896 30.8582C54.1096 31.2052 53.7048 31.5109 53.2751 31.7753C52.8455 32.0397 52.3085 32.271 51.6641 32.4693C51.0196 32.6676 50.3422 32.7667 49.6316 32.7667C46.9052 32.7667 44.9058 31.8331 43.6335 29.9659C42.3612 28.0987 41.725 25.5045 41.725 22.1832C41.725 20.1012 42.0224 18.2505 42.6173 16.6312C43.2121 14.9954 44.1457 13.6817 45.4181 12.6903C46.6904 11.6989 48.2271 11.2031 50.0282 11.2031C51.1023 11.2031 52.0606 11.3188 52.9034 11.5501C53.7461 11.7815 54.4731 12.0624 55.0845 12.3929V4.88278L52.3581 3.96571V1.23929L61.1322 0H63.0655V32.4693H56.7451ZM53.2504 27.9087C53.5478 27.9087 53.8535 27.8591 54.1674 27.76C54.4814 27.6443 54.7871 27.4873 55.0845 27.2891V14.8219C54.5723 14.7062 54.1013 14.6484 53.6717 14.6484C51.474 14.6649 50.367 16.3586 50.3504 19.7294V23.1994C50.3504 24.7527 50.6231 25.9258 51.1684 26.719C51.7136 27.5121 52.4076 27.9087 53.2504 27.9087Z" fill="black"/>
<path d="M32.6701 19.9525C32.6701 17.854 32.5627 16.3668 32.3479 15.4911C32.1331 14.6153 31.7365 14.1774 31.1582 14.1774C30.6624 14.1774 30.2576 14.2683 29.9437 14.4501C29.6297 14.6153 29.3984 14.888 29.2497 15.268C29.1009 15.6315 29.0018 16.0116 28.9522 16.4081C28.9192 16.7882 28.9027 17.2756 28.9027 17.8705V19.9525H32.6701ZM30.6872 33.2872C28.8366 33.2872 27.2255 33.0063 25.854 32.4445C24.4991 31.8827 23.425 31.0978 22.6319 30.0899C21.8553 29.0819 21.2852 27.95 20.9217 26.6942C20.5581 25.4219 20.3764 24.0091 20.3764 22.4559C20.3764 18.7545 21.3182 15.9537 23.202 14.0535C25.0857 12.1533 27.7212 11.2031 31.1086 11.2031C34.3638 11.2031 36.6936 11.9715 38.0982 13.5082C39.5027 15.0284 40.2049 17.4822 40.2049 20.8696V23.6208H28.8779V24.0917C28.8779 25.0666 28.977 25.868 29.1753 26.4959C29.3901 27.1238 29.6958 27.5865 30.0924 27.8839C30.4889 28.1814 30.8938 28.3796 31.3069 28.4788C31.72 28.5779 32.2239 28.6275 32.8188 28.6275C33.3971 28.6275 34.0168 28.5531 34.6777 28.4044C35.3552 28.2557 36.0327 28.0244 36.7102 27.7104C37.4042 27.3965 37.9825 27.0247 38.4452 26.5951L39.9075 29.0984C39.2961 30.0899 38.3956 30.9243 37.2059 31.6018C36.0327 32.2627 34.9008 32.7089 33.8102 32.9402C32.7197 33.1715 31.6787 33.2872 30.6872 33.2872Z" fill="black"/>
<path d="M19.0602 30.7095L18.8371 30.9821C18.6719 31.1474 18.391 31.3622 17.9944 31.6266C17.6144 31.8744 17.1517 32.1305 16.6064 32.3949C16.0777 32.6428 15.3671 32.8493 14.4749 33.0146C13.5826 33.1963 12.6242 33.2872 11.5997 33.2872C9.43509 33.2872 7.58443 32.932 6.04771 32.2214C4.511 31.4944 3.30476 30.4451 2.429 29.0736C1.56976 27.6856 0.950119 26.1241 0.570071 24.3891C0.190024 22.6376 0 20.6135 0 18.3167C0 15.8711 0.190024 13.7643 0.570071 11.9963C0.950119 10.2117 1.57802 8.65022 2.45378 7.3118C3.34607 5.95684 4.56883 4.94063 6.12207 4.26315C7.67531 3.58568 9.56728 3.24694 11.798 3.24694C12.8225 3.24694 13.7809 3.33782 14.6731 3.51958C15.5819 3.70134 16.2925 3.90789 16.8047 4.13923C17.3335 4.37056 17.8044 4.63494 18.2175 4.93237C18.6471 5.2298 18.9115 5.43634 19.0106 5.55201C19.1263 5.66768 19.2089 5.75856 19.2585 5.82465L18.8867 11.5254H15.1193L13.8304 8.57587C13.533 8.49325 13.2851 8.45194 13.0869 8.45194C11.9798 8.45194 11.1288 8.70806 10.5339 9.22029C9.93907 9.71601 9.48466 10.6992 9.17071 12.1698C8.85676 13.6239 8.69978 15.7224 8.69978 18.4654C8.69978 20.1012 8.79893 21.5305 8.99721 22.7533C9.21202 23.9761 9.46814 24.9179 9.76557 25.5789C10.063 26.2233 10.4183 26.7438 10.8314 27.1404C11.2444 27.5369 11.6162 27.7931 11.9467 27.9087C12.2772 28.0079 12.6324 28.0574 13.0125 28.0574C13.8552 28.0574 14.7392 27.9583 15.6646 27.76C16.5899 27.5452 17.35 27.223 17.9449 26.7934L19.0602 30.7095Z" fill="black"/>
</svg>
