<svg width="53" height="63" viewBox="0 0 53 63" fill="none" xmlns="http://www.w3.org/2000/svg">
<path d="M26.3298 0C29.1117 0.074183 34.6754 1.68025 34.6754 7.51103L26.3298 12.574L17.9843 7.51103C17.9843 1.68025 23.548 0.074183 26.3298 0Z" fill="#D89942"/>
<path d="M47.6946 24.0911C50.3652 26.8507 49.6975 32.4367 48.9186 34.8291C39.5716 38.6124 29.0005 47.5144 26.3299 51.6872C23.6593 47.5144 13.0882 38.6124 3.74116 34.8291C2.96224 32.4367 2.29459 26.8507 4.96518 24.0911C8.91547 24.6475 19.9316 28.6534 26.3299 37.8891C32.7282 28.6533 43.7444 24.6474 47.6946 24.0911Z" fill="#844A10"/>
<path d="M52.6465 38.7236C53.0916 51.4089 42.6317 62.9814 26.3301 62.9815C10.0284 62.9815 -0.431433 51.4089 0.013669 38.7236C11.9199 42.3957 20.9333 51.854 26.3301 58.4192C31.7269 51.8539 40.7403 42.3956 52.6465 38.7236Z" fill="#653709"/>
<path opacity="0.9" d="M26.3297 18.7499C30.1573 14.2101 38.3469 11.5174 40.2946 11.9621C42.0305 13.2084 42.3161 18.2491 42.1306 20.5303C36.7338 22.5889 29.1486 27.5035 26.3297 30.1555C23.5106 27.5034 15.9254 22.5888 10.5287 20.5303C10.3432 18.2492 10.629 13.2086 12.3647 11.9621C14.312 11.5171 22.5018 14.2099 26.3297 18.7499Z" fill="#A56610"/>
</svg>
